<svg width="51" height="50" viewBox="0 0 51 50" fill="none" xmlns="http://www.w3.org/2000/svg">
<path d="M15.758 0.0605602C15.6185 0.0996475 14.5702 0.53742 13.4341 1.02991C12.2979 1.52632 10.821 2.16734 10.1548 2.45267C8.60034 3.12106 8.34729 3.30867 8.18203 3.91452C8.06325 4.32884 8.10457 4.3992 9.59187 6.31836C12.0707 9.52347 17.1523 15.9063 17.3641 16.0901C17.6429 16.3207 18.0457 16.5044 18.464 16.5865C19.0476 16.6959 19.0683 16.692 21.8208 15.4959C23.1738 14.9057 24.6766 14.253 25.1672 14.0458C26.386 13.5221 26.7062 13.2484 26.8456 12.5996C26.9541 12.0954 26.9076 12.0094 25.756 10.5632C20.3593 3.80508 17.7307 0.533512 17.5965 0.412342C17.2195 0.0722866 16.3312 -0.0996952 15.758 0.0605602Z" fill="white"/>
<path d="M6.19372 5.30571C3.45667 5.89983 1.58721 7.40467 0.673137 9.75769C-0.798674 13.5374 0.332297 19.4903 3.77685 26.0999C7.26272 32.7837 12.5354 39.1314 18.2884 43.5678C23.2151 47.3631 27.9146 49.4542 32.6192 49.9467C33.275 50.0171 35.2426 50.0171 35.8468 49.9506C36.9726 49.8217 37.9745 49.6184 38.966 49.3213C39.4102 49.1845 39.8801 49.0243 39.9421 48.9852C39.9679 48.9696 35.4389 43.001 34.9069 42.36C34.3647 41.7033 33.3009 40.39 31.6535 38.334C30.7755 37.2435 30.9305 37.3295 30.1403 37.478C29.4793 37.5992 28.1056 37.6109 27.3258 37.4976C25.6165 37.2592 23.654 36.5165 21.9034 35.4534C21.1855 35.0195 19.8532 34.0345 19.1818 33.4482C18.1644 32.557 17.1316 31.4704 16.2743 30.3799C15.7527 29.7154 15.4945 29.3245 15.1485 28.6601C14.2809 26.995 13.7439 25.4589 13.4805 23.8915C13.3514 23.1176 13.3617 21.7808 13.5063 21.0694C13.78 19.6896 14.4255 18.5405 15.4532 17.5907C15.6081 17.45 15.7218 17.3249 15.7114 17.3093C15.7011 17.2975 15.4222 16.9379 15.0917 16.5119C14.2241 15.394 12.9537 13.6507 10.8777 10.7388C8.33688 7.16624 6.87024 5.18845 6.77212 5.19235C6.74629 5.19235 6.48292 5.24317 6.19372 5.30571Z" fill="white"/>
<path d="M39.7459 31.7052C39.6477 31.7365 38.5219 32.2133 37.2412 32.7722C35.9656 33.3312 34.4887 33.9683 33.9619 34.1911C32.9342 34.6328 32.5779 34.8517 32.3713 35.1722C32.1079 35.5826 32.1234 36.0125 32.4075 36.3956C36.0276 41.258 41.0782 47.8363 41.3623 48.0591C41.4552 48.1294 41.6773 48.2467 41.8632 48.3132C42.1679 48.4265 42.2402 48.4382 42.6895 48.4382H43.1853L44.0064 48.0786C44.4608 47.8832 45.9946 47.2187 47.4148 46.6051C48.8349 45.9875 50.0589 45.4364 50.1415 45.3777C50.3532 45.2292 50.534 45.0064 50.6476 44.7523C50.7612 44.5061 50.7819 43.9745 50.6837 43.7635C50.6528 43.6892 50.1673 43.0403 49.6096 42.3212C49.0467 41.602 47.5284 39.632 46.227 37.9434C42.8392 33.5462 41.8167 32.2368 41.6463 32.0726C41.5533 31.9827 41.3623 31.8772 41.1505 31.799C40.8562 31.6895 40.7477 31.67 40.3656 31.6622C40.0919 31.6544 39.8595 31.6739 39.7459 31.7052Z" fill="white"/>
</svg>
