<svg width="68" height="65" viewBox="0 0 68 65" fill="none" xmlns="http://www.w3.org/2000/svg">
<g filter="url(#filter0_d_19_18)">
<path d="M34 0L40.9599 21.4205H63.4827L45.2614 34.6591L52.2213 56.0795L34 42.8409L15.7787 56.0795L22.7386 34.6591L4.51725 21.4205H27.0401L34 0Z" fill="url(#paint0_radial_19_18)" shape-rendering="crispEdges"/>
<path d="M34 1.61804L40.4844 21.575L40.5967 21.9205H40.9599H61.9439L44.9675 34.2545L44.6736 34.4681L44.7859 34.8136L51.2703 54.7705L34.2939 42.4364L34 42.2229L33.7061 42.4364L16.7297 54.7705L23.2141 34.8136L23.3264 34.4681L23.0325 34.2545L6.05609 21.9205H27.0401H27.4033L27.5156 21.575L34 1.61804Z" stroke="white" shape-rendering="crispEdges"/>
</g>
<defs>
<filter id="filter0_d_19_18" x="0.517273" y="0" width="66.9655" height="64.0795" filterUnits="userSpaceOnUse" color-interpolation-filters="sRGB">
<feFlood flood-opacity="0" result="BackgroundImageFix"/>
<feColorMatrix in="SourceAlpha" type="matrix" values="0 0 0 0 0 0 0 0 0 0 0 0 0 0 0 0 0 0 127 0" result="hardAlpha"/>
<feOffset dy="4"/>
<feGaussianBlur stdDeviation="2"/>
<feComposite in2="hardAlpha" operator="out"/>
<feColorMatrix type="matrix" values="0 0 0 0 0 0 0 0 0 0 0 0 0 0 0 0 0 0 0.25 0"/>
<feBlend mode="normal" in2="BackgroundImageFix" result="effect1_dropShadow_19_18"/>
<feBlend mode="normal" in="SourceGraphic" in2="effect1_dropShadow_19_18" result="shape"/>
</filter>
<radialGradient id="paint0_radial_19_18" cx="0" cy="0" r="1" gradientUnits="userSpaceOnUse" gradientTransform="translate(34 31) rotate(90) scale(23)">
<stop stop-color="#D9D9D9"/>
<stop offset="1" stop-color="#D9D9D9" stop-opacity="0"/>
</radialGradient>
</defs>
</svg>
