<svg width="550" height="119" viewBox="0 0 550 119" fill="none" xmlns="http://www.w3.org/2000/svg">
<g filter="url(#filter0_d_11_206)">
<rect x="41" width="505" height="111" rx="30" fill="#808080"/>
</g>
<g filter="url(#filter1_d_11_206)">
<path d="M31.0391 109.055L67.5 111L54 105.5L42 87L41.0019 87.7486C40.3441 88.2419 39.5748 88.5654 38.7622 88.6904L33.5 89.5L23.5 89L5.26406 87.1296C4.81233 87.0833 4.53773 87.6145 4.83675 87.9563L17.3526 102.26C17.7801 102.749 18.2987 103.149 18.8794 103.44L29.0693 108.535C29.6832 108.842 30.3537 109.019 31.0391 109.055Z" fill="#808080"/>
</g>
<path d="M100.354 18.1172V43H95.6538V21.8257H85.1265V43H80.4268V18.1172H100.354ZM111.11 28.0635V50.1094H106.581V24.5088H110.768L111.11 28.0635ZM122.987 33.5664V33.9253C122.987 35.2697 122.828 36.5173 122.509 37.668C122.201 38.8073 121.745 39.8042 121.142 40.6587C120.538 41.5018 119.786 42.1626 118.886 42.6411C117.997 43.1082 116.972 43.3418 115.81 43.3418C114.67 43.3418 113.679 43.1253 112.836 42.6924C111.993 42.248 111.281 41.6214 110.7 40.8125C110.119 40.0036 109.652 39.0636 109.298 37.9927C108.957 36.9103 108.7 35.7311 108.529 34.4551V33.3101C108.7 31.9543 108.957 30.7238 109.298 29.6187C109.652 28.5021 110.119 27.5394 110.7 26.7305C111.281 25.9102 111.987 25.2778 112.819 24.8335C113.662 24.3892 114.647 24.167 115.775 24.167C116.949 24.167 117.98 24.3892 118.869 24.8335C119.769 25.2778 120.526 25.9159 121.142 26.7476C121.757 27.5793 122.218 28.5705 122.526 29.7212C122.833 30.8719 122.987 32.1536 122.987 33.5664ZM118.458 33.9253V33.5664C118.458 32.7461 118.384 31.9884 118.236 31.2935C118.088 30.5871 117.86 29.9718 117.553 29.4478C117.245 28.9123 116.846 28.4964 116.356 28.2002C115.867 27.904 115.274 27.7559 114.579 27.7559C113.884 27.7559 113.286 27.8698 112.785 28.0977C112.283 28.3255 111.873 28.6502 111.554 29.0718C111.235 29.4933 110.985 29.9946 110.802 30.5757C110.631 31.1453 110.517 31.7777 110.46 32.4727V35.3096C110.563 36.1527 110.762 36.9103 111.059 37.5825C111.355 38.2547 111.788 38.7902 112.357 39.189C112.938 39.5877 113.69 39.7871 114.613 39.7871C115.308 39.7871 115.901 39.6333 116.391 39.3257C116.881 39.0181 117.279 38.5965 117.587 38.061C117.895 37.5142 118.117 36.8875 118.253 36.1812C118.39 35.4748 118.458 34.7228 118.458 33.9253ZM132.599 36.5571L139.332 24.5088H143.861V43H139.332V30.9346L132.599 43H128.07V24.5088H132.599V36.5571ZM158.804 35.1729H152.942L152.908 32.1138H157.728C158.445 32.1138 159.032 32.0397 159.488 31.8916C159.944 31.7435 160.28 31.5213 160.496 31.2251C160.724 30.9289 160.838 30.57 160.838 30.1484C160.838 29.7839 160.77 29.4705 160.633 29.2085C160.496 28.9351 160.291 28.7129 160.018 28.542C159.756 28.3711 159.419 28.2458 159.009 28.166C158.611 28.0749 158.143 28.0293 157.608 28.0293H154.549V43H150.02V24.5088H157.608C158.804 24.5088 159.881 24.617 160.838 24.8335C161.795 25.0386 162.61 25.3519 163.282 25.7734C163.954 26.195 164.467 26.7305 164.82 27.3799C165.184 28.0179 165.367 28.7699 165.367 29.6357C165.367 30.2054 165.241 30.7409 164.991 31.2422C164.74 31.7435 164.37 32.1878 163.88 32.5752C163.39 32.9626 162.786 33.2816 162.068 33.5322C161.351 33.7715 160.53 33.9196 159.607 33.9766L158.804 35.1729ZM158.804 43H151.729L153.404 39.4795H158.804C159.465 39.4795 160.012 39.3997 160.445 39.2402C160.878 39.0693 161.197 38.8244 161.402 38.5054C161.618 38.1864 161.727 37.799 161.727 37.3433C161.727 36.8989 161.624 36.5173 161.419 36.1982C161.225 35.8678 160.912 35.6172 160.479 35.4463C160.057 35.264 159.499 35.1729 158.804 35.1729H154.139L154.173 32.1138H159.59L160.787 33.3271C162.017 33.4069 163.037 33.6576 163.846 34.0791C164.655 34.4893 165.258 35.0133 165.657 35.6514C166.056 36.278 166.255 36.9673 166.255 37.7192C166.255 38.5965 166.09 39.3656 165.76 40.0264C165.429 40.6872 164.945 41.2397 164.307 41.6841C163.669 42.117 162.889 42.4474 161.966 42.6753C161.043 42.8918 159.989 43 158.804 43ZM179.592 43.3418C178.191 43.3418 176.932 43.1139 175.815 42.6582C174.699 42.2025 173.748 41.5701 172.961 40.7612C172.187 39.9409 171.589 38.9896 171.167 37.9072C170.757 36.8135 170.552 35.64 170.552 34.3867V33.7031C170.552 32.279 170.757 30.9858 171.167 29.8237C171.577 28.6502 172.158 27.6419 172.91 26.7988C173.662 25.9557 174.562 25.3063 175.61 24.8506C176.659 24.3949 177.815 24.167 179.08 24.167C180.39 24.167 181.546 24.3892 182.549 24.8335C183.551 25.2664 184.389 25.8817 185.061 26.6792C185.733 27.4767 186.24 28.4338 186.582 29.5503C186.924 30.6554 187.095 31.8802 187.095 33.2246V35.1216H172.603V32.0112H182.651V31.6694C182.629 30.9517 182.492 30.2965 182.241 29.7041C181.991 29.1003 181.603 28.6217 181.079 28.2686C180.555 27.904 179.877 27.7217 179.045 27.7217C178.373 27.7217 177.786 27.8698 177.285 28.166C176.795 28.4508 176.385 28.861 176.055 29.3965C175.736 29.9206 175.496 30.5472 175.337 31.2764C175.177 32.0055 175.098 32.8145 175.098 33.7031V34.3867C175.098 35.1615 175.2 35.8792 175.405 36.54C175.622 37.2008 175.935 37.7762 176.345 38.2661C176.767 38.7446 177.268 39.1206 177.849 39.394C178.442 39.6561 179.114 39.7871 179.866 39.7871C180.811 39.7871 181.666 39.6048 182.429 39.2402C183.204 38.8643 183.876 38.3117 184.446 37.5825L186.719 39.9409C186.331 40.5106 185.807 41.0575 185.146 41.5815C184.497 42.1056 183.711 42.5329 182.788 42.8633C181.865 43.1823 180.8 43.3418 179.592 43.3418ZM200.637 24.5088V43H196.108V24.5088H200.637ZM206.652 24.5088V28.0293H190.195V24.5088H206.652ZM216.195 18.1172L215.7 35.5317H211.889L211.393 18.1172H216.195ZM211.256 40.8979C211.256 40.2257 211.484 39.6618 211.94 39.2061C212.407 38.7389 213.034 38.5054 213.82 38.5054C214.606 38.5054 215.227 38.7389 215.683 39.2061C216.15 39.6618 216.383 40.2257 216.383 40.8979C216.383 41.5588 216.15 42.117 215.683 42.5728C215.227 43.0285 214.606 43.2563 213.82 43.2563C213.034 43.2563 212.407 43.0285 211.94 42.5728C211.484 42.117 211.256 41.5588 211.256 40.8979ZM246.338 33.8057H239.52L237.811 33.105C235.896 32.5011 234.432 31.5897 233.418 30.3706C232.404 29.1515 231.897 27.6077 231.897 25.7393C231.897 24.0872 232.262 22.6973 232.991 21.5693C233.732 20.43 234.78 19.5698 236.136 18.9888C237.503 18.4077 239.121 18.1172 240.989 18.1172H249.5V43H244.783V21.8257H240.989C239.497 21.8257 238.392 22.196 237.674 22.9365C236.956 23.6771 236.597 24.7082 236.597 26.0298C236.597 26.9526 236.757 27.7331 237.076 28.3711C237.406 29.0091 237.89 29.4876 238.528 29.8066C239.178 30.1257 239.981 30.2852 240.938 30.2852H246.321L246.338 33.8057ZM241.246 31.8232L235.589 43H230.513L236.204 31.8232H241.246ZM281.181 24.5088V43H276.652V24.5088H281.181ZM279.13 32.5581V36.1128C278.697 36.3179 278.173 36.5116 277.558 36.6938C276.954 36.8647 276.316 37.0015 275.644 37.104C274.983 37.2065 274.34 37.2578 273.713 37.2578C272.015 37.2578 270.551 37.0072 269.321 36.5059C268.102 36.0046 267.162 35.2355 266.501 34.1987C265.84 33.1506 265.51 31.8118 265.51 30.1826V24.4917H270.021V30.1826C270.021 31.0599 270.153 31.7549 270.415 32.2676C270.677 32.7803 271.081 33.1449 271.628 33.3613C272.175 33.5778 272.87 33.686 273.713 33.686C274.362 33.686 274.983 33.6405 275.576 33.5493C276.168 33.4468 276.755 33.3158 277.336 33.1562C277.928 32.9854 278.527 32.786 279.13 32.5581ZM297.218 39.0693V30.5415C297.218 29.9149 297.11 29.3737 296.894 28.918C296.677 28.4622 296.347 28.109 295.902 27.8584C295.458 27.6077 294.894 27.4824 294.21 27.4824C293.607 27.4824 293.077 27.585 292.621 27.79C292.177 27.9951 291.835 28.2856 291.596 28.6616C291.356 29.0262 291.237 29.4478 291.237 29.9263H286.708C286.708 29.1629 286.89 28.4395 287.255 27.7559C287.619 27.0609 288.138 26.4456 288.81 25.9102C289.494 25.3633 290.308 24.936 291.254 24.6284C292.211 24.3208 293.282 24.167 294.467 24.167C295.868 24.167 297.116 24.4062 298.209 24.8848C299.315 25.3519 300.181 26.0583 300.807 27.0039C301.445 27.9495 301.764 29.1401 301.764 30.5757V38.6421C301.764 39.5649 301.821 40.3568 301.935 41.0176C302.06 41.667 302.243 42.231 302.482 42.7095V43H297.885C297.668 42.5329 297.503 41.9404 297.389 41.2227C297.275 40.4935 297.218 39.7757 297.218 39.0693ZM297.851 31.7378L297.885 34.4209H295.031C294.324 34.4209 293.703 34.495 293.168 34.6431C292.632 34.7798 292.194 34.9849 291.852 35.2583C291.51 35.5203 291.254 35.8394 291.083 36.2153C290.912 36.5799 290.827 36.9958 290.827 37.4629C290.827 37.9186 290.929 38.3288 291.134 38.6934C291.351 39.0579 291.658 39.3485 292.057 39.5649C292.467 39.77 292.946 39.8726 293.493 39.8726C294.29 39.8726 294.985 39.7131 295.578 39.394C296.17 39.0636 296.632 38.6649 296.962 38.1978C297.292 37.7306 297.469 37.2863 297.492 36.8647L298.791 38.813C298.631 39.2801 298.392 39.7757 298.073 40.2998C297.754 40.8239 297.344 41.3138 296.842 41.7695C296.341 42.2253 295.737 42.6012 295.031 42.8975C294.324 43.1937 293.504 43.3418 292.57 43.3418C291.374 43.3418 290.303 43.1025 289.357 42.624C288.411 42.1455 287.665 41.4904 287.118 40.6587C286.571 39.827 286.298 38.8813 286.298 37.8218C286.298 36.842 286.48 35.9761 286.845 35.2241C287.209 34.4722 287.75 33.8398 288.468 33.3271C289.186 32.8031 290.075 32.41 291.134 32.1479C292.205 31.8745 293.43 31.7378 294.809 31.7378H297.851ZM316.28 24.5088V43H311.751V24.5088H316.28ZM322.296 24.5088V28.0293H305.838V24.5088H322.296ZM335.684 30.5586V34.1304H326.336V30.5586H335.684ZM352.747 16.3911H356.404C356.404 17.3595 356.278 18.1742 356.028 18.835C355.777 19.4844 355.39 20.0312 354.866 20.4756C354.342 20.9085 353.669 21.2674 352.849 21.5522C352.029 21.8371 351.049 22.0877 349.91 22.3042C348.953 22.4979 348.11 22.8169 347.38 23.2612C346.651 23.7056 346.042 24.3151 345.552 25.0898C345.073 25.8646 344.726 26.8501 344.509 28.0464C344.293 29.2427 344.224 30.6839 344.304 32.3701V33.3613L340.767 33.7715V32.7803C340.767 30.5814 340.966 28.6673 341.365 27.0381C341.764 25.3975 342.327 24.0189 343.057 22.9023C343.786 21.7744 344.657 20.88 345.671 20.2192C346.697 19.547 347.842 19.0742 349.106 18.8008C349.95 18.6299 350.639 18.4533 351.174 18.271C351.721 18.0887 352.12 17.8551 352.371 17.5703C352.621 17.2741 352.747 16.881 352.747 16.3911ZM350.217 25.5513C351.459 25.5513 352.559 25.7677 353.516 26.2007C354.484 26.6222 355.299 27.2204 355.959 27.9951C356.62 28.7585 357.122 29.6642 357.463 30.7124C357.817 31.7492 357.993 32.8828 357.993 34.1133V34.4722C357.993 35.7482 357.799 36.9274 357.412 38.0098C357.036 39.0921 356.484 40.0321 355.754 40.8296C355.025 41.6271 354.125 42.248 353.054 42.6924C351.983 43.1367 350.758 43.3589 349.38 43.3589C348.013 43.3589 346.794 43.1253 345.723 42.6582C344.652 42.1797 343.746 41.5189 343.005 40.6758C342.265 39.8327 341.707 38.8415 341.331 37.7021C340.955 36.5514 340.767 35.2982 340.767 33.9424V33.5835C340.755 33.3556 340.829 33.1392 340.989 32.9341C341.148 32.729 341.336 32.5011 341.553 32.2505C341.781 31.9998 341.986 31.6979 342.168 31.3447C342.795 30.137 343.501 29.1003 344.287 28.2344C345.085 27.3685 345.973 26.7077 346.953 26.252C347.933 25.7848 349.021 25.5513 350.217 25.5513ZM349.346 29.106C348.377 29.106 347.591 29.3395 346.987 29.8066C346.395 30.2624 345.962 30.8719 345.688 31.6353C345.415 32.3872 345.278 33.2132 345.278 34.1133V34.4722C345.278 35.2013 345.352 35.8906 345.5 36.54C345.66 37.1781 345.899 37.742 346.218 38.2319C346.537 38.7218 346.959 39.1092 347.483 39.394C348.007 39.6675 348.639 39.8042 349.38 39.8042C350.12 39.8042 350.747 39.6675 351.26 39.394C351.784 39.1092 352.205 38.7218 352.524 38.2319C352.843 37.742 353.077 37.1781 353.225 36.54C353.385 35.8906 353.464 35.2013 353.464 34.4722V34.1133C353.464 33.4411 353.385 32.8031 353.225 32.1992C353.077 31.5954 352.843 31.0656 352.524 30.6099C352.205 30.1427 351.778 29.7782 351.243 29.5161C350.719 29.2427 350.086 29.106 349.346 29.106ZM362.067 33.9424V33.5835C362.067 32.2277 362.261 30.9801 362.648 29.8408C363.036 28.6901 363.6 27.6932 364.34 26.8501C365.081 26.007 365.987 25.3519 367.058 24.8848C368.129 24.4062 369.348 24.167 370.715 24.167C372.105 24.167 373.335 24.4062 374.406 24.8848C375.489 25.3519 376.4 26.007 377.141 26.8501C377.881 27.6932 378.445 28.6901 378.833 29.8408C379.22 30.9801 379.414 32.2277 379.414 33.5835V33.9424C379.414 35.2868 379.22 36.5343 378.833 37.6851C378.445 38.8244 377.881 39.8213 377.141 40.6758C376.4 41.5189 375.494 42.174 374.423 42.6411C373.352 43.1082 372.128 43.3418 370.749 43.3418C369.382 43.3418 368.157 43.1082 367.075 42.6411C365.992 42.174 365.081 41.5189 364.34 40.6758C363.6 39.8213 363.036 38.8244 362.648 37.6851C362.261 36.5343 362.067 35.2868 362.067 33.9424ZM366.579 33.5835V33.9424C366.579 34.7513 366.659 35.509 366.818 36.2153C366.978 36.9217 367.223 37.5426 367.553 38.0781C367.884 38.6136 368.311 39.0352 368.835 39.3428C369.37 39.639 370.008 39.7871 370.749 39.7871C371.478 39.7871 372.105 39.639 372.629 39.3428C373.153 39.0352 373.58 38.6136 373.911 38.0781C374.252 37.5426 374.503 36.9217 374.663 36.2153C374.822 35.509 374.902 34.7513 374.902 33.9424V33.5835C374.902 32.786 374.822 32.0397 374.663 31.3447C374.503 30.6383 374.252 30.0174 373.911 29.4819C373.58 28.9351 373.147 28.5078 372.612 28.2002C372.088 27.8812 371.455 27.7217 370.715 27.7217C369.986 27.7217 369.359 27.8812 368.835 28.2002C368.311 28.5078 367.884 28.9351 367.553 29.4819C367.223 30.0174 366.978 30.6383 366.818 31.3447C366.659 32.0397 366.579 32.786 366.579 33.5835ZM392.973 24.5088V43H388.444V24.5088H392.973ZM398.988 24.5088V28.0293H382.531V24.5088H398.988ZM403.575 40.7954C403.575 40.1118 403.809 39.5365 404.276 39.0693C404.743 38.6022 405.375 38.3687 406.173 38.3687C406.97 38.3687 407.603 38.6022 408.07 39.0693C408.537 39.5365 408.771 40.1118 408.771 40.7954C408.771 41.4676 408.537 42.0373 408.07 42.5044C407.603 42.9601 406.97 43.188 406.173 43.188C405.375 43.188 404.743 42.9601 404.276 42.5044C403.809 42.0373 403.575 41.4676 403.575 40.7954ZM80.4268 59.1172H85.1436V66.7905C85.1436 67.9299 85.3145 68.8185 85.6562 69.4565C86.0094 70.0946 86.5392 70.5446 87.2456 70.8066C87.952 71.0687 88.8293 71.1997 89.8774 71.1997C90.3332 71.1997 90.8345 71.1769 91.3813 71.1313C91.9396 71.0858 92.5036 71.0288 93.0732 70.9604C93.6543 70.8807 94.2069 70.7839 94.731 70.6699C95.2664 70.556 95.7336 70.4307 96.1323 70.2939V74.0024C95.7336 74.1278 95.2721 74.2474 94.748 74.3613C94.2354 74.4753 93.6942 74.5721 93.1245 74.6519C92.5662 74.7316 92.0023 74.7943 91.4326 74.8398C90.8743 74.874 90.356 74.8911 89.8774 74.8911C87.952 74.8911 86.2772 74.612 84.853 74.0537C83.4403 73.4954 82.3465 72.6239 81.5718 71.439C80.8084 70.2427 80.4268 68.6932 80.4268 66.7905V59.1172ZM95.1069 59.1172H99.8237V84H95.1069V59.1172ZM114.323 84.3418C112.921 84.3418 111.662 84.1139 110.546 83.6582C109.429 83.2025 108.478 82.5701 107.692 81.7612C106.917 80.9409 106.319 79.9896 105.897 78.9072C105.487 77.8135 105.282 76.64 105.282 75.3867V74.7031C105.282 73.279 105.487 71.9858 105.897 70.8237C106.308 69.6502 106.889 68.6419 107.641 67.7988C108.393 66.9557 109.293 66.3063 110.341 65.8506C111.389 65.3949 112.545 65.167 113.81 65.167C115.12 65.167 116.277 65.3892 117.279 65.8335C118.282 66.2664 119.119 66.8817 119.792 67.6792C120.464 68.4767 120.971 69.4338 121.312 70.5503C121.654 71.6554 121.825 72.8802 121.825 74.2246V76.1216H107.333V73.0112H117.382V72.6694C117.359 71.9517 117.222 71.2965 116.972 70.7041C116.721 70.1003 116.334 69.6217 115.81 69.2686C115.285 68.904 114.608 68.7217 113.776 68.7217C113.104 68.7217 112.517 68.8698 112.016 69.166C111.526 69.4508 111.116 69.861 110.785 70.3965C110.466 70.9206 110.227 71.5472 110.067 72.2764C109.908 73.0055 109.828 73.8145 109.828 74.7031V75.3867C109.828 76.1615 109.931 76.8792 110.136 77.54C110.352 78.2008 110.666 78.7762 111.076 79.2661C111.497 79.7446 111.999 80.1206 112.58 80.394C113.172 80.6561 113.844 80.7871 114.596 80.7871C115.542 80.7871 116.396 80.6048 117.16 80.2402C117.934 79.8643 118.607 79.3117 119.176 78.5825L121.449 80.9409C121.062 81.5106 120.538 82.0575 119.877 82.5815C119.228 83.1056 118.441 83.5329 117.519 83.8633C116.596 84.1823 115.53 84.3418 114.323 84.3418ZM137.691 78.668L142.887 65.5088H146.664L139.229 84H136.17L128.753 65.5088H132.547L137.691 78.668ZM131.437 65.5088V84H126.908V65.5088H131.437ZM144.032 84V65.5088H148.561V84H144.032ZM169.202 74.874H173.833L168.638 84H164.006L169.202 74.874ZM172.346 65.5088H180.378V84H175.867V69.0293H172.346C171.628 69.0293 171.03 69.1603 170.552 69.4224C170.085 69.6844 169.737 70.0205 169.509 70.4307C169.281 70.8294 169.167 71.2396 169.167 71.6611C169.167 72.0713 169.276 72.4701 169.492 72.8574C169.709 73.2448 170.039 73.5638 170.483 73.8145C170.939 74.0651 171.509 74.1904 172.192 74.1904H177.473V77.3691H172.192C171.019 77.3691 169.965 77.2267 169.031 76.9419C168.108 76.6457 167.316 76.2355 166.655 75.7114C166.006 75.1873 165.51 74.5721 165.168 73.8657C164.827 73.1479 164.656 72.3675 164.656 71.5244C164.656 70.6585 164.827 69.861 165.168 69.1318C165.522 68.4027 166.029 67.7646 166.689 67.2178C167.362 66.6709 168.171 66.2493 169.116 65.9531C170.073 65.6569 171.15 65.5088 172.346 65.5088ZM208.095 78.668L213.29 65.5088H217.067L209.633 84H206.574L199.157 65.5088H202.951L208.095 78.668ZM201.84 65.5088V84H197.311V65.5088H201.84ZM214.435 84V65.5088H218.964V84H214.435ZM224.405 74.9424V74.5835C224.405 73.2277 224.599 71.9801 224.986 70.8408C225.374 69.6901 225.938 68.6932 226.678 67.8501C227.419 67.007 228.325 66.3519 229.396 65.8848C230.466 65.4062 231.686 65.167 233.053 65.167C234.443 65.167 235.673 65.4062 236.744 65.8848C237.826 66.3519 238.738 67.007 239.479 67.8501C240.219 68.6932 240.783 69.6901 241.17 70.8408C241.558 71.9801 241.751 73.2277 241.751 74.5835V74.9424C241.751 76.2868 241.558 77.5343 241.17 78.6851C240.783 79.8244 240.219 80.8213 239.479 81.6758C238.738 82.5189 237.832 83.174 236.761 83.6411C235.69 84.1082 234.465 84.3418 233.087 84.3418C231.72 84.3418 230.495 84.1082 229.413 83.6411C228.33 83.174 227.419 82.5189 226.678 81.6758C225.938 80.8213 225.374 79.8244 224.986 78.6851C224.599 77.5343 224.405 76.2868 224.405 74.9424ZM228.917 74.5835V74.9424C228.917 75.7513 228.997 76.509 229.156 77.2153C229.316 77.9217 229.561 78.5426 229.891 79.0781C230.222 79.6136 230.649 80.0352 231.173 80.3428C231.708 80.639 232.346 80.7871 233.087 80.7871C233.816 80.7871 234.443 80.639 234.967 80.3428C235.491 80.0352 235.918 79.6136 236.249 79.0781C236.59 78.5426 236.841 77.9217 237 77.2153C237.16 76.509 237.24 75.7513 237.24 74.9424V74.5835C237.24 73.786 237.16 73.0397 237 72.3447C236.841 71.6383 236.59 71.0174 236.249 70.4819C235.918 69.9351 235.485 69.5078 234.95 69.2002C234.426 68.8812 233.793 68.7217 233.053 68.7217C232.324 68.7217 231.697 68.8812 231.173 69.2002C230.649 69.5078 230.222 69.9351 229.891 70.4819C229.561 71.0174 229.316 71.6383 229.156 72.3447C228.997 73.0397 228.917 73.786 228.917 74.5835ZM259.207 65.5088V69.0806H251.329V84H246.817V65.5088H259.207ZM268.647 81.9492L273.604 65.5088H278.44L271.023 86.8027C270.852 87.2585 270.63 87.7541 270.356 88.2896C270.094 88.825 269.741 89.332 269.297 89.8105C268.853 90.3005 268.294 90.6992 267.622 91.0068C266.961 91.3145 266.158 91.4683 265.212 91.4683C264.802 91.4683 264.438 91.4398 264.119 91.3828C263.8 91.3258 263.464 91.2518 263.11 91.1606V87.7769C263.224 87.7882 263.355 87.7939 263.503 87.7939C263.663 87.8053 263.8 87.811 263.914 87.811C264.574 87.811 265.121 87.7313 265.554 87.5718C265.987 87.4237 266.335 87.1787 266.597 86.8369C266.87 86.5065 267.098 86.0736 267.28 85.5381L268.647 81.9492ZM266.204 65.5088L270.391 79.1294L271.125 83.8975L268.015 84.4614L261.333 65.5088H266.204ZM302.721 72.9087H296.364L296.33 69.5933H301.781C302.715 69.5933 303.496 69.4622 304.123 69.2002C304.749 68.9382 305.222 68.5565 305.541 68.0552C305.871 67.5539 306.037 66.9443 306.037 66.2266C306.037 65.429 305.883 64.7796 305.575 64.2783C305.279 63.777 304.812 63.4124 304.174 63.1846C303.536 62.9453 302.727 62.8257 301.747 62.8257H297.885V84H293.185V59.1172H301.747C303.16 59.1172 304.419 59.2539 305.524 59.5273C306.64 59.7894 307.586 60.1995 308.361 60.7578C309.136 61.3161 309.722 62.0168 310.121 62.8599C310.531 63.703 310.736 64.7056 310.736 65.8677C310.736 66.8931 310.497 67.8387 310.019 68.7046C309.551 69.5591 308.828 70.2541 307.848 70.7896C306.88 71.325 305.649 71.6326 304.157 71.7124L302.721 72.9087ZM302.516 84H294.979L296.945 80.3086H302.516C303.45 80.3086 304.219 80.1548 304.823 79.8472C305.438 79.5396 305.894 79.118 306.19 78.5825C306.498 78.0356 306.652 77.409 306.652 76.7026C306.652 75.9279 306.515 75.2557 306.242 74.686C305.98 74.1164 305.558 73.6777 304.977 73.3701C304.407 73.0625 303.655 72.9087 302.721 72.9087H297.833L297.868 69.5933H304.088L305.165 70.875C306.601 70.8864 307.768 71.1712 308.668 71.7295C309.58 72.2878 310.252 73.0055 310.685 73.8828C311.118 74.7601 311.334 75.7057 311.334 76.7197C311.334 78.3148 310.987 79.6535 310.292 80.7358C309.608 81.8182 308.606 82.6328 307.284 83.1797C305.974 83.7266 304.385 84 302.516 84ZM326.996 80.0693V71.5415C326.996 70.9149 326.887 70.3737 326.671 69.918C326.454 69.4622 326.124 69.109 325.68 68.8584C325.235 68.6077 324.671 68.4824 323.988 68.4824C323.384 68.4824 322.854 68.585 322.398 68.79C321.954 68.9951 321.612 69.2856 321.373 69.6616C321.134 70.0262 321.014 70.4478 321.014 70.9263H316.485C316.485 70.1629 316.668 69.4395 317.032 68.7559C317.397 68.0609 317.915 67.4456 318.587 66.9102C319.271 66.3633 320.086 65.936 321.031 65.6284C321.988 65.3208 323.059 65.167 324.244 65.167C325.646 65.167 326.893 65.4062 327.987 65.8848C329.092 66.3519 329.958 67.0583 330.584 68.0039C331.222 68.9495 331.542 70.1401 331.542 71.5757V79.6421C331.542 80.5649 331.598 81.3568 331.712 82.0176C331.838 82.667 332.02 83.231 332.259 83.7095V84H327.662C327.446 83.5329 327.28 82.9404 327.167 82.2227C327.053 81.4935 326.996 80.7757 326.996 80.0693ZM327.628 72.7378L327.662 75.4209H324.808C324.102 75.4209 323.481 75.495 322.945 75.6431C322.41 75.7798 321.971 75.9849 321.629 76.2583C321.288 76.5203 321.031 76.8394 320.86 77.2153C320.689 77.5799 320.604 77.9958 320.604 78.4629C320.604 78.9186 320.707 79.3288 320.912 79.6934C321.128 80.0579 321.436 80.3485 321.834 80.5649C322.245 80.77 322.723 80.8726 323.27 80.8726C324.068 80.8726 324.763 80.7131 325.355 80.394C325.947 80.0636 326.409 79.6649 326.739 79.1978C327.07 78.7306 327.246 78.2863 327.269 77.8647L328.568 79.813C328.408 80.2801 328.169 80.7757 327.85 81.2998C327.531 81.8239 327.121 82.3138 326.62 82.7695C326.118 83.2253 325.514 83.6012 324.808 83.8975C324.102 84.1937 323.281 84.3418 322.347 84.3418C321.151 84.3418 320.08 84.1025 319.134 83.624C318.189 83.1455 317.442 82.4904 316.896 81.6587C316.349 80.827 316.075 79.8813 316.075 78.8218C316.075 77.842 316.257 76.9761 316.622 76.2241C316.987 75.4722 317.528 74.8398 318.246 74.3271C318.963 73.8031 319.852 73.41 320.912 73.1479C321.983 72.8745 323.207 72.7378 324.586 72.7378H327.628ZM348.45 78.668L353.646 65.5088H357.422L349.988 84H346.929L339.512 65.5088H343.306L348.45 78.668ZM342.195 65.5088V84H337.667V65.5088H342.195ZM354.791 84V65.5088H359.319V84H354.791ZM388.437 65.5088V69.0806H379.396V65.5088H388.437ZM380.593 65.5088V84H376.064V65.5088H380.593ZM391.855 65.5088V84H387.309V65.5088H391.855ZM396.903 74.9424V74.5835C396.903 73.2277 397.097 71.9801 397.484 70.8408C397.872 69.6901 398.436 68.6932 399.176 67.8501C399.917 67.007 400.823 66.3519 401.894 65.8848C402.965 65.4062 404.184 65.167 405.551 65.167C406.941 65.167 408.171 65.4062 409.242 65.8848C410.325 66.3519 411.236 67.007 411.977 67.8501C412.717 68.6932 413.281 69.6901 413.668 70.8408C414.056 71.9801 414.25 73.2277 414.25 74.5835V74.9424C414.25 76.2868 414.056 77.5343 413.668 78.6851C413.281 79.8244 412.717 80.8213 411.977 81.6758C411.236 82.5189 410.33 83.174 409.259 83.6411C408.188 84.1082 406.964 84.3418 405.585 84.3418C404.218 84.3418 402.993 84.1082 401.911 83.6411C400.828 83.174 399.917 82.5189 399.176 81.6758C398.436 80.8213 397.872 79.8244 397.484 78.6851C397.097 77.5343 396.903 76.2868 396.903 74.9424ZM401.415 74.5835V74.9424C401.415 75.7513 401.495 76.509 401.654 77.2153C401.814 77.9217 402.059 78.5426 402.389 79.0781C402.72 79.6136 403.147 80.0352 403.671 80.3428C404.206 80.639 404.844 80.7871 405.585 80.7871C406.314 80.7871 406.941 80.639 407.465 80.3428C407.989 80.0352 408.416 79.6136 408.747 79.0781C409.088 78.5426 409.339 77.9217 409.499 77.2153C409.658 76.509 409.738 75.7513 409.738 74.9424V74.5835C409.738 73.786 409.658 73.0397 409.499 72.3447C409.339 71.6383 409.088 71.0174 408.747 70.4819C408.416 69.9351 407.983 69.5078 407.448 69.2002C406.924 68.8812 406.291 68.7217 405.551 68.7217C404.822 68.7217 404.195 68.8812 403.671 69.2002C403.147 69.5078 402.72 69.9351 402.389 70.4819C402.059 71.0174 401.814 71.6383 401.654 72.3447C401.495 73.0397 401.415 73.786 401.415 74.5835ZM430.372 78.668L435.567 65.5088H439.344L431.91 84H428.851L421.434 65.5088H425.228L430.372 78.668ZM424.117 65.5088V84H419.588V65.5088H424.117ZM436.712 84V65.5088H441.241V84H436.712ZM446.683 74.9424V74.5835C446.683 73.2277 446.876 71.9801 447.264 70.8408C447.651 69.6901 448.215 68.6932 448.956 67.8501C449.696 67.007 450.602 66.3519 451.673 65.8848C452.744 65.4062 453.963 65.167 455.33 65.167C456.72 65.167 457.951 65.4062 459.021 65.8848C460.104 66.3519 461.015 67.007 461.756 67.8501C462.496 68.6932 463.06 69.6901 463.448 70.8408C463.835 71.9801 464.029 73.2277 464.029 74.5835V74.9424C464.029 76.2868 463.835 77.5343 463.448 78.6851C463.06 79.8244 462.496 80.8213 461.756 81.6758C461.015 82.5189 460.11 83.174 459.039 83.6411C457.968 84.1082 456.743 84.3418 455.364 84.3418C453.997 84.3418 452.772 84.1082 451.69 83.6411C450.608 83.174 449.696 82.5189 448.956 81.6758C448.215 80.8213 447.651 79.8244 447.264 78.6851C446.876 77.5343 446.683 76.2868 446.683 74.9424ZM451.194 74.5835V74.9424C451.194 75.7513 451.274 76.509 451.434 77.2153C451.593 77.9217 451.838 78.5426 452.168 79.0781C452.499 79.6136 452.926 80.0352 453.45 80.3428C453.986 80.639 454.624 80.7871 455.364 80.7871C456.093 80.7871 456.72 80.639 457.244 80.3428C457.768 80.0352 458.195 79.6136 458.526 79.0781C458.868 78.5426 459.118 77.9217 459.278 77.2153C459.437 76.509 459.517 75.7513 459.517 74.9424V74.5835C459.517 73.786 459.437 73.0397 459.278 72.3447C459.118 71.6383 458.868 71.0174 458.526 70.4819C458.195 69.9351 457.763 69.5078 457.227 69.2002C456.703 68.8812 456.071 68.7217 455.33 68.7217C454.601 68.7217 453.974 68.8812 453.45 69.2002C452.926 69.5078 452.499 69.9351 452.168 70.4819C451.838 71.0174 451.593 71.6383 451.434 72.3447C451.274 73.0397 451.194 73.786 451.194 74.5835ZM484.27 65.5088V84H479.741V65.5088H484.27ZM482.219 73.5581V77.1128C481.786 77.3179 481.262 77.5116 480.647 77.6938C480.043 77.8647 479.405 78.0015 478.733 78.104C478.072 78.2065 477.428 78.2578 476.802 78.2578C475.104 78.2578 473.64 78.0072 472.41 77.5059C471.191 77.0046 470.251 76.2355 469.59 75.1987C468.929 74.1506 468.599 72.8118 468.599 71.1826V65.4917H473.11V71.1826C473.11 72.0599 473.241 72.7549 473.503 73.2676C473.765 73.7803 474.17 74.1449 474.717 74.3613C475.264 74.5778 475.959 74.686 476.802 74.686C477.451 74.686 478.072 74.6405 478.665 74.5493C479.257 74.4468 479.844 74.3158 480.425 74.1562C481.017 73.9854 481.615 73.786 482.219 73.5581ZM493.334 71.1997H498.735C500.375 71.1997 501.771 71.4731 502.922 72.02C504.084 72.5555 504.967 73.3075 505.571 74.2759C506.186 75.2329 506.494 76.3438 506.494 77.6084C506.494 78.5199 506.317 79.3687 505.964 80.1548C505.622 80.9295 505.121 81.6074 504.46 82.1885C503.799 82.7581 502.985 83.2025 502.016 83.5215C501.059 83.8405 499.965 84 498.735 84H490.429V65.5088H494.958V80.4624H498.735C499.521 80.4624 500.148 80.3314 500.615 80.0693C501.093 79.7959 501.435 79.4484 501.64 79.0269C501.857 78.5939 501.965 78.1325 501.965 77.6426C501.965 77.1413 501.857 76.6742 501.64 76.2412C501.435 75.7969 501.093 75.438 500.615 75.1646C500.148 74.8911 499.521 74.7544 498.735 74.7544H493.334V71.1997ZM519.318 76.5317H515.233C515.245 75.495 515.33 74.6063 515.49 73.8657C515.661 73.1252 515.94 72.4587 516.327 71.8662C516.715 71.2624 517.239 70.6471 517.899 70.0205C518.424 69.5306 518.891 69.0692 519.301 68.6362C519.722 68.1919 520.053 67.7305 520.292 67.252C520.531 66.762 520.651 66.2095 520.651 65.5942C520.651 64.8993 520.537 64.3182 520.309 63.8511C520.093 63.384 519.768 63.0308 519.335 62.7915C518.913 62.5409 518.384 62.4155 517.746 62.4155C517.222 62.4155 516.726 62.5238 516.259 62.7402C515.792 62.9567 515.416 63.2928 515.131 63.7485C514.846 64.1929 514.692 64.7739 514.669 65.4917H510.141C510.175 63.9992 510.528 62.7573 511.2 61.7661C511.872 60.7635 512.778 60.0173 513.917 59.5273C515.057 59.026 516.333 58.7754 517.746 58.7754C519.306 58.7754 520.639 59.0374 521.745 59.5615C522.861 60.0742 523.71 60.8262 524.291 61.8174C524.883 62.8086 525.18 64.0049 525.18 65.4062C525.18 66.4089 524.986 67.3089 524.599 68.1064C524.211 68.8926 523.699 69.6274 523.061 70.311C522.423 70.9946 521.733 71.6839 520.993 72.3789C520.343 72.96 519.905 73.5809 519.677 74.2417C519.449 74.9025 519.329 75.6659 519.318 76.5317ZM514.806 81.8467C514.806 81.1631 515.034 80.5934 515.49 80.1377C515.957 79.682 516.583 79.4541 517.37 79.4541C518.156 79.4541 518.777 79.682 519.232 80.1377C519.7 80.5934 519.933 81.1631 519.933 81.8467C519.933 82.5075 519.7 83.0658 519.232 83.5215C518.777 83.9772 518.156 84.2051 517.37 84.2051C516.583 84.2051 515.957 83.9772 515.49 83.5215C515.034 83.0658 514.806 82.5075 514.806 81.8467Z" fill="white"/>
<defs>
<filter id="filter0_d_11_206" x="37" y="0" width="513" height="119" filterUnits="userSpaceOnUse" color-interpolation-filters="sRGB">
<feFlood flood-opacity="0" result="BackgroundImageFix"/>
<feColorMatrix in="SourceAlpha" type="matrix" values="0 0 0 0 0 0 0 0 0 0 0 0 0 0 0 0 0 0 127 0" result="hardAlpha"/>
<feOffset dy="4"/>
<feGaussianBlur stdDeviation="2"/>
<feComposite in2="hardAlpha" operator="out"/>
<feColorMatrix type="matrix" values="0 0 0 0 0 0 0 0 0 0 0 0 0 0 0 0 0 0 0.25 0"/>
<feBlend mode="normal" in2="BackgroundImageFix" result="effect1_dropShadow_11_206"/>
<feBlend mode="normal" in="SourceGraphic" in2="effect1_dropShadow_11_206" result="shape"/>
</filter>
<filter id="filter1_d_11_206" x="0.711655" y="87" width="70.7883" height="32" filterUnits="userSpaceOnUse" color-interpolation-filters="sRGB">
<feFlood flood-opacity="0" result="BackgroundImageFix"/>
<feColorMatrix in="SourceAlpha" type="matrix" values="0 0 0 0 0 0 0 0 0 0 0 0 0 0 0 0 0 0 127 0" result="hardAlpha"/>
<feOffset dy="4"/>
<feGaussianBlur stdDeviation="2"/>
<feComposite in2="hardAlpha" operator="out"/>
<feColorMatrix type="matrix" values="0 0 0 0 0 0 0 0 0 0 0 0 0 0 0 0 0 0 0.25 0"/>
<feBlend mode="normal" in2="BackgroundImageFix" result="effect1_dropShadow_11_206"/>
<feBlend mode="normal" in="SourceGraphic" in2="effect1_dropShadow_11_206" result="shape"/>
</filter>
</defs>
</svg>
